<svg width="38" height="38" viewBox="0 0 38 38" fill="none" xmlns="http://www.w3.org/2000/svg">
<g clip-path="url(#clip0_718_796)">
<path d="M19.1667 0C15.4748 0 11.8657 1.09478 8.79603 3.1459C5.72631 5.19702 3.33376 8.11236 1.92092 11.5232C0.508088 14.9341 0.138426 18.6874 0.858683 22.3084C1.57894 25.9293 3.35677 29.2554 5.96735 31.866C8.57793 34.4766 11.904 36.2544 15.525 36.9747C19.146 37.6949 22.8992 37.3253 26.3101 35.9124C29.721 34.4996 32.6363 32.107 34.6874 29.0373C36.7386 25.9676 37.8333 22.3586 37.8333 18.6667C37.828 13.7176 35.8596 8.97277 32.3601 5.47325C28.8606 1.97373 24.1157 0.00535279 19.1667 0V0ZM19.1667 34.2222C16.0901 34.2222 13.0826 33.3099 10.5245 31.6006C7.96637 29.8914 5.97258 27.4619 4.79522 24.6195C3.61785 21.7771 3.3098 18.6494 3.91002 15.6319C4.51023 12.6144 5.99175 9.84271 8.16724 7.66723C10.3427 5.49174 13.1145 4.01022 16.1319 3.41001C19.1494 2.80979 22.2771 3.11784 25.1195 4.29521C27.9619 5.47257 30.3914 7.46637 32.1006 10.0245C33.8099 12.5826 34.7222 15.5901 34.7222 18.6667C34.7177 22.7909 33.0774 26.7449 30.1611 29.6611C27.2449 32.5774 23.2909 34.2177 19.1667 34.2222ZM26.9445 18.6667C26.9445 19.0792 26.7806 19.4749 26.4888 19.7666C26.1971 20.0583 25.8015 20.2222 25.3889 20.2222H20.7222V24.8889C20.7222 25.3014 20.5583 25.6971 20.2666 25.9888C19.9749 26.2806 19.5792 26.4444 19.1667 26.4444C18.7541 26.4444 18.3585 26.2806 18.0667 25.9888C17.775 25.6971 17.6111 25.3014 17.6111 24.8889V20.2222H12.9445C12.5319 20.2222 12.1362 20.0583 11.8445 19.7666C11.5528 19.4749 11.3889 19.0792 11.3889 18.6667C11.3889 18.2541 11.5528 17.8584 11.8445 17.5667C12.1362 17.275 12.5319 17.1111 12.9445 17.1111H17.6111V12.4444C17.6111 12.0319 17.775 11.6362 18.0667 11.3445C18.3585 11.0528 18.7541 10.8889 19.1667 10.8889C19.5792 10.8889 19.9749 11.0528 20.2666 11.3445C20.5583 11.6362 20.7222 12.0319 20.7222 12.4444V17.1111H25.3889C25.8015 17.1111 26.1971 17.275 26.4888 17.5667C26.7806 17.8584 26.9445 18.2541 26.9445 18.6667Z" fill="white"/>
</g>
<defs>
<clipPath id="clip0_718_796">
<rect width="37.3333" height="37.3333" fill="white" transform="translate(0.5)"/>
</clipPath>
</defs>
</svg>
