<svg width="28" height="27" viewBox="0 0 28 27" fill="none" xmlns="http://www.w3.org/2000/svg">
<path d="M22.7222 8.88894L16.0555 3.04449C15.4444 2.49788 14.6532 2.19568 13.8333 2.19568C13.0134 2.19568 12.2222 2.49788 11.6111 3.04449L4.94444 8.88894C4.59151 9.20457 4.30988 9.59178 4.1183 10.0248C3.92671 10.4577 3.82956 10.9266 3.83333 11.4V21.1112C3.83333 21.9952 4.18452 22.8431 4.80964 23.4682C5.43476 24.0933 6.2826 24.4445 7.16666 24.4445H20.5C21.384 24.4445 22.2319 24.0933 22.857 23.4682C23.4821 22.8431 23.8333 21.9952 23.8333 21.1112V11.3889C23.8355 10.9173 23.7376 10.4506 23.5461 10.0197C23.3545 9.58874 23.0737 9.20333 22.7222 8.88894ZM16.0555 22.2223H11.6111V16.6667C11.6111 16.372 11.7282 16.0894 11.9365 15.881C12.1449 15.6727 12.4275 15.5556 12.7222 15.5556H14.9444C15.2391 15.5556 15.5217 15.6727 15.7301 15.881C15.9385 16.0894 16.0555 16.372 16.0555 16.6667V22.2223ZM21.6111 21.1112C21.6111 21.4058 21.494 21.6885 21.2857 21.8968C21.0773 22.1052 20.7947 22.2223 20.5 22.2223H18.2778V16.6667C18.2778 15.7827 17.9266 14.9348 17.3015 14.3097C16.6763 13.6846 15.8285 13.3334 14.9444 13.3334H12.7222C11.8382 13.3334 10.9903 13.6846 10.3652 14.3097C9.74007 14.9348 9.38888 15.7827 9.38888 16.6667V22.2223H7.16666C6.87197 22.2223 6.58936 22.1052 6.38099 21.8968C6.17261 21.6885 6.05555 21.4058 6.05555 21.1112V11.3889C6.05575 11.2312 6.08954 11.0753 6.15468 10.9316C6.21982 10.7879 6.31481 10.6597 6.43333 10.5556L13.1 4.72227C13.3028 4.54414 13.5634 4.4459 13.8333 4.4459C14.1032 4.4459 14.3639 4.54414 14.5667 4.72227L21.2333 10.5556C21.3518 10.6597 21.4468 10.7879 21.512 10.9316C21.5771 11.0753 21.6109 11.2312 21.6111 11.3889V21.1112Z" fill="#1D9BF0"/>
</svg>
