<svg width="28" height="27" viewBox="0 0 28 27" fill="none" xmlns="http://www.w3.org/2000/svg">
<path fill-rule="evenodd" clip-rule="evenodd" d="M11.6002 12.1223C11.865 11.9455 12.1754 11.8491 12.4938 11.8448C12.8122 11.8404 13.1251 11.9283 13.3946 12.0978L17.1402 14.4201C17.738 14.7912 18.0002 15.4312 18.0002 16.0112C18.0002 16.5923 17.738 17.2323 17.1402 17.6023L13.3946 19.9245C12.7946 20.2956 12.1091 20.2356 11.6002 19.9001C11.3438 19.7278 11.1343 19.4943 10.9907 19.2208C10.8472 18.9473 10.7741 18.6423 10.778 18.3334V13.6889C10.778 13.0301 11.0991 12.4512 11.6002 12.1223ZM12.5146 13.5156C12.4935 13.5289 12.4446 13.5778 12.4446 13.6889V18.3334C12.4446 18.4445 12.4935 18.4934 12.5146 18.5067L12.5158 18.5078L16.2624 16.1856C16.2858 16.1712 16.3335 16.1201 16.3335 16.0112C16.3335 15.9023 16.2858 15.8523 16.2624 15.8367L12.5169 13.5145L12.5146 13.5156Z" fill="#1D9BF0"/>
<path fill-rule="evenodd" clip-rule="evenodd" d="M10.1667 1.38892C9.92229 1.38892 9.7334 1.38892 9.57118 1.40669C8.84624 1.48435 8.17296 1.81866 7.67293 2.34926C7.1729 2.87986 6.87907 3.57176 6.84451 4.30003C6.19231 4.49641 5.61952 4.89522 5.20903 5.43874C4.79854 5.98227 4.57164 6.64232 4.56118 7.32336C3.89451 7.52336 3.31784 7.84003 2.84673 8.34891C2.12229 9.13225 1.89784 10.0956 1.88896 11.2222C1.88118 12.3056 2.07451 13.6745 2.3134 15.3734L2.80229 18.8334C2.98896 20.1622 3.14118 21.2422 3.37784 22.0878C3.62562 22.9734 3.99118 23.7011 4.66673 24.2611C5.33784 24.8167 6.1334 25.0556 7.0734 25.1689C7.9834 25.2778 9.12784 25.2778 10.5512 25.2778H17.1145C18.539 25.2778 19.6834 25.2778 20.5923 25.1689C21.5334 25.0556 22.329 24.8167 23.0001 24.2611C23.6756 23.7011 24.0412 22.9722 24.289 22.0878C24.5256 21.2422 24.6778 20.1622 24.8656 18.8322L25.3534 15.3734C25.5934 13.6734 25.7867 12.3056 25.7778 11.2222C25.769 10.0956 25.5445 9.13225 24.8201 8.34891C24.349 7.84003 23.7723 7.52447 23.1045 7.32336C23.0939 6.64265 22.867 5.98296 22.4568 5.43967C22.0465 4.89638 21.4741 4.49765 20.8223 4.30114C20.788 3.57268 20.4943 2.88051 19.9942 2.34968C19.4942 1.81885 18.8207 1.48438 18.0956 1.40669C17.9323 1.38892 17.7445 1.38892 17.5001 1.38892H10.1667ZM21.4001 7.03114C21.3232 6.69124 21.1331 6.38756 20.861 6.16992C20.5888 5.95228 20.2508 5.8336 19.9023 5.83336H7.76451C7.02118 5.83336 6.41784 6.35558 6.26562 7.03114C7.29451 6.94447 8.55451 6.94447 10.0734 6.94447H17.5934C19.1112 6.94447 20.3712 6.94447 21.4012 7.03114H21.4001ZM19.1323 4.16669C19.0733 3.87781 18.924 3.61518 18.7059 3.41683C18.4877 3.21847 18.2121 3.09467 17.919 3.06336C17.7647 3.05423 17.6101 3.05163 17.4556 3.05558H10.2112C9.90007 3.05558 9.81007 3.05669 9.74784 3.06336C9.45468 3.09467 9.17908 3.21847 8.96095 3.41683C8.74281 3.61518 8.59346 3.87781 8.53451 4.16669H19.1301H19.1323ZM4.07007 9.48114C4.40673 9.1178 4.91229 8.87669 5.89562 8.74558C6.89673 8.61225 8.23784 8.61114 10.1356 8.61114H17.5312C19.429 8.61114 20.7701 8.61336 21.7712 8.74558C22.7545 8.87669 23.2601 9.1178 23.5967 9.48114C23.9256 9.83669 24.1045 10.32 24.1112 11.2356C24.1178 12.18 23.9445 13.4245 23.6934 15.2089L23.2234 18.5422C23.0256 19.9434 22.8878 20.9122 22.6845 21.6389C22.4878 22.3389 22.2578 22.7111 21.9367 22.9767C21.6112 23.2478 21.1734 23.4211 20.3945 23.5145C19.5956 23.61 18.5512 23.6111 17.0612 23.6111H10.6056C9.11451 23.6111 8.07118 23.61 7.27229 23.5145C6.49451 23.42 6.05562 23.2478 5.73007 22.9778C5.40896 22.7111 5.17896 22.3378 4.98229 21.6389C4.77896 20.9122 4.64118 19.9434 4.4434 18.5422L3.9734 15.2089C3.72229 13.4256 3.54896 12.18 3.55562 11.2356C3.56229 10.32 3.74118 9.83558 4.07007 9.48114Z" fill="#1D9BF0"/>
</svg>
